<mxfile host="65bd71144e">
    <diagram id="eUi_ylvvrMZlD-ysLF89" name="Page-1">
        <mxGraphModel dx="1386" dy="1955" grid="1" gridSize="10" guides="1" tooltips="1" connect="1" arrows="1" fold="1" page="1" pageScale="1" pageWidth="827" pageHeight="1169" math="0" shadow="0">
            <root>
                <mxCell id="0"/>
                <mxCell id="1" parent="0"/>
                <mxCell id="12" value="" style="verticalLabelPosition=bottom;verticalAlign=top;html=1;shape=mxgraph.basic.arc;startAngle=0.3;endAngle=0.1;fontSize=15;allowArrows=1;shadow=0;" parent="1" vertex="1">
                    <mxGeometry x="384" y="-40" width="30" height="30" as="geometry"/>
                </mxCell>
                <mxCell id="33" value="pull down" style="text;html=1;strokeColor=none;fillColor=none;align=center;verticalAlign=middle;whiteSpace=wrap;rounded=0;" vertex="1" parent="1">
                    <mxGeometry x="251.11" y="179.35" width="60" height="30" as="geometry"/>
                </mxCell>
                <mxCell id="36" value="&lt;span style=&quot;color: rgb(25, 25, 25); font-family: Arial, Helvetica, Veranda, sans-serif; font-size: 16px; text-align: left; background-color: rgb(255, 255, 255);&quot;&gt;core (abdominal, and back)&lt;/span&gt;" style="text;html=1;strokeColor=none;fillColor=none;align=center;verticalAlign=middle;whiteSpace=wrap;rounded=0;" vertex="1" parent="1">
                    <mxGeometry x="253.64" y="394.36" width="60" height="30" as="geometry"/>
                </mxCell>
                <mxCell id="2" value="" style="rounded=0;whiteSpace=wrap;html=1;" parent="1" vertex="1">
                    <mxGeometry x="80" y="25" width="310" height="645" as="geometry"/>
                </mxCell>
                <mxCell id="4" value="" style="rounded=0;whiteSpace=wrap;html=1;" parent="1" vertex="1">
                    <mxGeometry x="80" y="25" width="310" height="63.34821428571428" as="geometry"/>
                </mxCell>
                <mxCell id="5" value="Exercise Tracker" style="text;html=1;strokeColor=none;fillColor=none;align=center;verticalAlign=middle;whiteSpace=wrap;rounded=0;fontSize=15;" parent="1" vertex="1">
                    <mxGeometry x="174.72222222222223" y="39.39732142857143" width="111.94444444444446" height="34.55357142857142" as="geometry"/>
                </mxCell>
                <mxCell id="10" value="59:59" style="text;html=1;strokeColor=none;fillColor=none;align=center;verticalAlign=middle;whiteSpace=wrap;rounded=0;fontSize=15;" parent="1" vertex="1">
                    <mxGeometry x="114.44444444444444" y="111.38392857142857" width="51.66666666666667" height="34.55357142857142" as="geometry"/>
                </mxCell>
                <mxCell id="11" value="" style="strokeWidth=2;html=1;shape=mxgraph.flowchart.merge_or_storage;whiteSpace=wrap;fontSize=15;direction=south;flipH=1;" parent="1" vertex="1">
                    <mxGeometry x="174.72222222222223" y="114.26339285714285" width="15.069444444444445" height="31.67410714285714" as="geometry"/>
                </mxCell>
                <mxCell id="9" value="" style="whiteSpace=wrap;html=1;aspect=fixed;fontSize=15;" parent="1" vertex="1">
                    <mxGeometry x="138.89" y="180" width="82.97488812445272" height="82.97488812445272" as="geometry"/>
                </mxCell>
                <mxCell id="14" value="" style="dashed=0;outlineConnect=0;html=1;align=center;labelPosition=center;verticalLabelPosition=bottom;verticalAlign=top;shape=mxgraph.webicons.aim;fillColor=#27E1E5;gradientColor=#0A4361;shadow=0;sketch=0;fontSize=15;" parent="1" vertex="1">
                    <mxGeometry x="152.71949640287767" y="200.74429824561403" width="63.062503597122245" height="56.14790058479536" as="geometry"/>
                </mxCell>
                <mxCell id="15" value="" style="whiteSpace=wrap;html=1;aspect=fixed;fontSize=15;" parent="1" vertex="1">
                    <mxGeometry x="242.61122302158265" y="180" width="82.97488812445272" height="82.97488812445272" as="geometry"/>
                </mxCell>
                <mxCell id="16" value="" style="verticalLabelPosition=bottom;verticalAlign=top;html=1;shape=mxgraph.basic.tick;shadow=0;sketch=0;fontSize=15;" parent="1" vertex="1">
                    <mxGeometry x="261.9725179856114" y="208.3505409356725" width="36.30242805755399" height="41.488596491228066" as="geometry"/>
                </mxCell>
                <mxCell id="17" value="" style="whiteSpace=wrap;html=1;aspect=fixed;fontSize=15;" parent="1" vertex="1">
                    <mxGeometry x="140.6186870503597" y="276.80672514619886" width="82.97488812445272" height="82.97488812445272" as="geometry"/>
                </mxCell>
                <mxCell id="18" value="" style="whiteSpace=wrap;html=1;aspect=fixed;fontSize=15;" parent="1" vertex="1">
                    <mxGeometry x="242.61122302158265" y="276.80672514619886" width="82.97488812445272" height="82.97488812445272" as="geometry"/>
                </mxCell>
                <mxCell id="19" value="" style="whiteSpace=wrap;html=1;aspect=fixed;fontSize=15;" parent="1" vertex="1">
                    <mxGeometry x="141.31016187050358" y="374.99640350877166" width="82.97488812445272" height="82.97488812445272" as="geometry"/>
                </mxCell>
                <mxCell id="20" value="" style="whiteSpace=wrap;html=1;aspect=fixed;fontSize=15;" parent="1" vertex="1">
                    <mxGeometry x="243.30269784172665" y="374.99640350877166" width="82.97488812445272" height="82.97488812445272" as="geometry"/>
                </mxCell>
                <mxCell id="21" value="" style="whiteSpace=wrap;html=1;aspect=fixed;fontSize=15;" parent="1" vertex="1">
                    <mxGeometry x="143.38458633093524" y="474.56903508771927" width="82.97488812445272" height="82.97488812445272" as="geometry"/>
                </mxCell>
                <mxCell id="22" value="" style="whiteSpace=wrap;html=1;aspect=fixed;fontSize=15;" parent="1" vertex="1">
                    <mxGeometry x="245.3771223021581" y="474.56903508771927" width="82.97488812445272" height="82.97488812445272" as="geometry"/>
                </mxCell>
                <mxCell id="23" value="" style="whiteSpace=wrap;html=1;aspect=fixed;fontSize=15;" parent="1" vertex="1">
                    <mxGeometry x="146.1504856115108" y="569.9928070175433" width="82.97488812445272" height="82.97488812445272" as="geometry"/>
                </mxCell>
                <mxCell id="24" value="" style="whiteSpace=wrap;html=1;aspect=fixed;fontSize=15;" parent="1" vertex="1">
                    <mxGeometry x="248.14302158273392" y="569.9928070175433" width="82.97488812445272" height="82.97488812445272" as="geometry"/>
                </mxCell>
                <mxCell id="25" value="" style="dashed=0;outlineConnect=0;html=1;align=center;labelPosition=center;verticalLabelPosition=bottom;verticalAlign=top;shape=mxgraph.weblogos.stumpedia;shadow=0;sketch=0;fontSize=15;" parent="1" vertex="1">
                    <mxGeometry x="159.63424460431654" y="304.46578947368414" width="46.328812949640316" height="46.74381871345031" as="geometry"/>
                </mxCell>
                <mxCell id="26" value="" style="dashed=0;outlineConnect=0;html=1;align=center;labelPosition=center;verticalLabelPosition=bottom;verticalAlign=top;shape=mxgraph.weblogos.wix;strokeColor=#dddddd;shadow=0;sketch=0;fontSize=15;" parent="1" vertex="1">
                    <mxGeometry x="258.515143884892" y="308.614649122807" width="51.169136690647456" height="42.59495906432748" as="geometry"/>
                </mxCell>
                <mxCell id="27" value="" style="dashed=0;outlineConnect=0;html=1;align=center;labelPosition=center;verticalLabelPosition=bottom;verticalAlign=top;shape=mxgraph.weblogos.steam;fillColor=#695D5D;gradientColor=#100E0E;shadow=0;sketch=0;fontSize=15;" parent="1" vertex="1">
                    <mxGeometry x="154.79392086330932" y="415.10204678362584" width="58.913654676258936" height="27.3824736842105" as="geometry"/>
                </mxCell>
                <mxCell id="28" value="" style="verticalLabelPosition=bottom;verticalAlign=top;html=1;shape=mxgraph.basic.tick;shadow=0;sketch=0;fontSize=15;" parent="1" vertex="1">
                    <mxGeometry x="266.63997302158265" y="394.3577485380115" width="36.30242805755399" height="41.488596491228066" as="geometry"/>
                </mxCell>
                <mxCell id="29" value="" style="dashed=0;outlineConnect=0;html=1;align=center;labelPosition=center;verticalLabelPosition=bottom;verticalAlign=top;shape=mxgraph.weblogos.aim;shadow=0;sketch=0;fontSize=15;" parent="1" vertex="1">
                    <mxGeometry x="163.2990611510791" y="504.9940058479532" width="43.14802877697843" height="47.296999999999976" as="geometry"/>
                </mxCell>
                <mxCell id="32" value="pull down" style="text;html=1;strokeColor=none;fillColor=none;align=center;verticalAlign=middle;whiteSpace=wrap;rounded=0;" vertex="1" parent="1">
                    <mxGeometry x="152.11" y="176.35" width="60" height="30" as="geometry"/>
                </mxCell>
                <mxCell id="34" value="hamstring" style="text;html=1;strokeColor=none;fillColor=none;align=center;verticalAlign=middle;whiteSpace=wrap;rounded=0;" vertex="1" parent="1">
                    <mxGeometry x="256.86" y="474.57" width="60" height="30" as="geometry"/>
                </mxCell>
                <mxCell id="37" value="pull" style="text;html=1;strokeColor=none;fillColor=none;align=center;verticalAlign=middle;whiteSpace=wrap;rounded=0;" vertex="1" parent="1">
                    <mxGeometry x="254.11" y="177.35" width="60" height="30" as="geometry"/>
                </mxCell>
                <mxCell id="38" value="close arms" style="text;html=1;strokeColor=none;fillColor=none;align=center;verticalAlign=middle;whiteSpace=wrap;rounded=0;" vertex="1" parent="1">
                    <mxGeometry x="155.78000000000003" y="274.47" width="60" height="30" as="geometry"/>
                </mxCell>
                <mxCell id="39" value="open arms" style="text;html=1;strokeColor=none;fillColor=none;align=center;verticalAlign=middle;whiteSpace=wrap;rounded=0;" vertex="1" parent="1">
                    <mxGeometry x="254.78000000000003" y="275.47" width="60" height="30" as="geometry"/>
                </mxCell>
                <mxCell id="40" value="core" style="text;html=1;strokeColor=none;fillColor=none;align=center;verticalAlign=middle;whiteSpace=wrap;rounded=0;" vertex="1" parent="1">
                    <mxGeometry x="154.87" y="371" width="60" height="30" as="geometry"/>
                </mxCell>
                <mxCell id="41" value="push front" style="text;html=1;strokeColor=none;fillColor=none;align=center;verticalAlign=middle;whiteSpace=wrap;rounded=0;" vertex="1" parent="1">
                    <mxGeometry x="153.87" y="472" width="60" height="30" as="geometry"/>
                </mxCell>
                <mxCell id="42" value="core" style="text;html=1;strokeColor=none;fillColor=none;align=center;verticalAlign=middle;whiteSpace=wrap;rounded=0;" vertex="1" parent="1">
                    <mxGeometry x="254.1" y="371" width="60" height="31" as="geometry"/>
                </mxCell>
                <mxCell id="43" value="close legs" style="text;html=1;strokeColor=none;fillColor=none;align=center;verticalAlign=middle;whiteSpace=wrap;rounded=0;" vertex="1" parent="1">
                    <mxGeometry x="159.63000000000002" y="569" width="60" height="30" as="geometry"/>
                </mxCell>
                <mxCell id="44" value="open legs" style="text;html=1;strokeColor=none;fillColor=none;align=center;verticalAlign=middle;whiteSpace=wrap;rounded=0;" vertex="1" parent="1">
                    <mxGeometry x="258.63000000000005" y="570" width="60" height="30" as="geometry"/>
                </mxCell>
            </root>
        </mxGraphModel>
    </diagram>
</mxfile>